<svg width="16" height="8" viewBox="0 0 16 8" fill="none" xmlns="http://www.w3.org/2000/svg">
<g clip-path="url(#clip0_829_14585)">
<path d="M3.06504 0.15917C3.75089 0.15917 4.39574 0.479233 4.81041 1.02476L6.2767 2.95775L6.27355 2.95775L7.99527 5.22342L9.71699 2.95775L11.1864 1.02476C11.6011 0.479233 12.246 0.157593 12.9318 0.157593L15.9968 0.157593L10.8648 6.90414C10.3398 7.59315 9.52306 7.99835 8.65747 7.99835L7.3378 7.99835C6.47063 7.99835 5.65392 7.59315 5.13047 6.90414C3.42136 4.65582 1.71068 2.40749 0 0.159169L3.06504 0.15917Z" fill="#ED1B34"/>
<path d="M0 0.160767L3.06346 0.160767C3.74931 0.160767 4.39417 0.48083 4.81198 1.02478L5.92353 2.49265L6.2767 2.95935L7.99685 5.22344L6.73709 6.88209C6.33977 7.40397 5.53883 7.43865 5.14151 6.91678C5.13835 6.91362 5.13678 6.91047 5.13362 6.90574C4.70792 6.34603 4.27749 5.78158 3.85179 5.22186C2.56839 3.53483 1.28025 1.84622 -1.37836e-10 0.16392C0 0.162343 -1.37836e-10 0.16392 0 0.160767Z" fill="#ED1B34"/>
</g>
<defs>
<clipPath id="clip0_829_14585">
<rect width="7.84076" height="16" fill="white" transform="matrix(-4.37114e-08 1 1 4.37114e-08 0 0.15918)"/>
</clipPath>
</defs>
</svg>
