<svg width="16" height="8" viewBox="0 0 16 8" fill="none" xmlns="http://www.w3.org/2000/svg">
<path d="M12.935 7.84071C12.2491 7.84071 11.6043 7.52065 11.1896 6.97512L9.7233 5.04213L9.72645 5.04213L8.00473 2.77646L6.28301 5.04213L4.81356 6.97512C4.3989 7.52065 3.75404 7.84229 3.06819 7.84229L0.0031538 7.84229L5.1352 1.09574C5.66023 0.406733 6.47694 0.00152868 7.34253 0.00152864L8.6622 0.00152858C9.52936 0.00152855 10.3461 0.406732 10.8695 1.09573C12.5786 3.34406 14.2893 5.59238 16 7.84071L12.935 7.84071Z" fill="#ED1B34"/>
<path d="M16 7.83936L12.9365 7.83936C12.2507 7.83936 11.6058 7.51929 11.188 6.97534L10.0765 5.50747L9.7233 5.04077L8.00315 2.77668L9.26291 1.11803C9.66023 0.596155 10.4612 0.561468 10.8585 1.08334C10.8616 1.0865 10.8632 1.08965 10.8664 1.09438C11.2921 1.6541 11.7225 2.21854 12.1482 2.77826C13.4316 4.46529 14.7197 6.1539 16 7.8362C16 7.83778 16 7.8362 16 7.83936Z" fill="#ED1B34"/>
</svg>
